<?xml version="1.0" encoding="UTF-8" standalone="no"?>
<!DOCTYPE svg PUBLIC "-//W3C//DTD SVG 1.1//EN" "http://www.w3.org/Graphics/SVG/1.1/DTD/svg11.dtd">
<svg width="100%" height="100%" viewBox="0 0 2315 2317" version="1.1" xmlns="http://www.w3.org/2000/svg" xmlns:xlink="http://www.w3.org/1999/xlink" xml:space="preserve" xmlns:serif="http://www.serif.com/" style="fill-rule:evenodd;clip-rule:evenodd;stroke-linejoin:round;stroke-miterlimit:2;">
    <g id="ŚŚ" transform="matrix(4.16667,0,0,4.16667,-22.3084,-16.666)">
        <g transform="matrix(1,0,0,1,85.416,363.137)">
            <path d="M0,-160.699C-8.116,-156.445 -16.113,-152.003 -23.169,-146.07C-28.125,-141.902 -32.605,-137.3 -35.703,-131.554C-41.394,-120.999 -40.808,-110.761 -33.678,-101.076C-27.512,-92.701 -18.958,-87.307 -9.856,-82.734C8.564,-73.478 28.292,-68.171 48.372,-64.179C105.456,-52.836 163.214,-50.611 221.208,-51.842C257.328,-52.608 293.296,-55.207 328.945,-61.279C353.245,-65.418 377.219,-70.826 399.728,-81.308C408.289,-85.296 416.34,-90.111 422.985,-96.97C434.411,-108.764 435.362,-122.803 425.553,-136.024C418.956,-144.915 410.064,-151.056 400.593,-156.459C398.428,-157.694 396.22,-158.853 394.032,-160.047C393.949,-160.7 394.08,-161.104 394.856,-160.755C416.945,-153.324 438.124,-144.156 455.971,-128.655C460.129,-125.043 463.772,-120.951 466.738,-116.306C474.683,-103.863 474.854,-91.305 467.122,-78.688C461.535,-69.572 453.661,-62.717 445.146,-56.498C444.189,-55.799 443.21,-55.131 441.751,-54.104C453.103,-46.599 464.224,-39.248 475.532,-31.772C465.695,-23.953 456.061,-16.393 446.571,-8.656C444.932,-7.318 443.681,-8.051 442.312,-8.488C424.103,-14.312 405.896,-20.144 387.725,-26.087C384.982,-26.983 382.516,-26.978 379.771,-26.093C349.342,-16.275 318.114,-10.182 286.443,-6.118C245.094,-0.811 203.594,0.768 161.977,-1.286C107.334,-3.981 53.535,-11.625 1.624,-29.767C-14.676,-35.465 -30.483,-42.297 -45.109,-51.553C-60.81,-61.488 -74.842,-72.978 -80.062,-92.019L-80.062,-102.744C-74.944,-121.188 -61.284,-132.13 -45.848,-141.385C-31.435,-150.027 -16.033,-156.504 0.012,-161.467C0.187,-161.293 0.243,-161.122 0.181,-160.952C0.12,-160.783 0.06,-160.699 0,-160.699" style="fill:white;fill-rule:nonzero;"/>
        </g>
        <g transform="matrix(1,0,0,1,407.95,3.9432)">
            <path d="M0,277.964C4.84,267.613 8.606,257.152 11.437,246.359C19.537,215.476 21.762,183.965 21.562,152.187C21.437,132.274 20.216,112.435 17.887,92.657C17.088,85.875 13.219,81.948 6.373,81.224C-0.746,80.47 -7.299,82.383 -13.616,85.394C-28.893,92.672 -41.453,103.626 -53.419,115.273C-79.718,140.872 -102.289,169.61 -123.604,199.381C-124.367,200.446 -125.112,201.522 -125.888,202.576C-126.004,202.734 -126.243,202.803 -126.542,202.984C-132.757,194.586 -138.867,186.107 -145.208,177.804C-164.755,152.207 -185.296,127.478 -209.485,106.044C-219.129,97.498 -229.312,89.668 -241.259,84.495C-246.778,82.105 -252.486,80.646 -258.591,81.163C-265.903,81.783 -270.025,85.441 -270.833,92.69C-273.847,119.72 -275.271,146.818 -274.194,174.028C-273.202,199.077 -270.468,223.868 -263.876,248.128C-261.133,258.222 -257.571,268.026 -252.769,278.199C-257.799,277.336 -262.278,276.598 -266.745,275.795C-276.226,274.09 -285.617,271.997 -294.93,269.517C-297.074,268.945 -298.08,267.992 -298.696,265.936C-304.794,245.592 -308.694,224.818 -311.08,203.739C-314.452,173.959 -315.132,144.092 -313.916,114.168C-313.17,95.833 -311.78,77.546 -309.492,59.336C-308.651,52.648 -304.648,48.793 -298.264,47.024C-259.683,36.333 -221.116,25.59 -182.54,14.879C-165.713,10.206 -148.862,5.62 -132.056,0.873C-128.133,-0.235 -124.421,-0.202 -120.498,0.892C-65.225,16.297 -9.932,31.63 45.357,46.981C52.499,48.964 56.201,53.238 57.033,60.578C61.459,99.608 62.961,138.74 60.586,177.961C58.783,207.726 54.627,237.136 45.819,265.751C45.15,267.922 44.139,268.939 41.875,269.555C28.89,273.093 15.677,275.5 2.444,277.828C1.756,277.949 1.039,277.911 0,277.964" style="fill:white;fill-rule:nonzero;"/>
        </g>
        <g transform="matrix(1,0,0,1,281.65,151.639)">
            <path d="M0,139.675C-18.041,139.774 -35.417,139.364 -52.777,138.418C-61.455,137.946 -70.117,137.172 -78.797,136.756C-80.976,136.652 -81.838,135.799 -82.535,133.915C-92.82,106.125 -101.756,77.959 -105.754,48.48C-107.762,33.682 -108.659,18.838 -104.117,4.248C-102.773,-0.069 -102.697,-0.099 -98.804,2.342C-86.841,9.841 -77.2,19.901 -68.311,30.669C-40.915,63.852 -19.772,100.967 0,139.675" style="fill:white;fill-rule:nonzero;"/>
        </g>
        <g transform="matrix(1,0,0,1,314.421,151.886)">
            <path d="M0,139.468C-10.005,139.468 -20.011,139.446 -30.017,139.488C-31.914,139.496 -33.023,139.493 -31.772,137.049C-11.088,96.625 11.456,57.401 41.716,23.167C49.074,14.843 57.225,7.384 66.711,1.455C69.082,-0.028 69.908,0.382 70.772,2.979C74.423,13.944 74.79,25.218 73.868,36.533C71.098,70.509 60.788,102.612 49.178,134.377C48.572,136.034 47.59,136.333 46.016,136.464C30.699,137.734 15.353,138.448 0,139.468" style="fill:white;fill-rule:nonzero;"/>
        </g>
        <g transform="matrix(1,0,0,1,189.9,425.144)">
            <path d="M0,-46.858C17.02,-44.735 34.079,-43.057 51.213,-42.142C77.771,-40.724 104.319,-40.682 130.876,-42.176C148.955,-43.193 166.962,-44.913 184.993,-47.159C185.05,-45.912 183.969,-45.707 183.322,-45.21C157.521,-25.431 129.336,-10.22 98.159,-0.714C93.796,0.616 89.613,0.664 85.226,-0.678C53.479,-10.394 24.799,-25.918 -1.416,-46.155C-1.507,-47.522 -0.694,-47.071 0,-46.858" style="fill:white;fill-rule:nonzero;"/>
        </g>
        <g transform="matrix(1,0,0,1,480.272,201.954)">
            <path d="M0,0.427C-0.274,0.663 -0.55,0.899 -0.824,1.135C-1.879,0.81 -3.018,0.615 -3.562,-0.708C-2.19,-0.691 -1.02,-0.385 0,0.427" style="fill:white;fill-rule:nonzero;"/>
        </g>
        <g transform="matrix(1,0,0,1,140.637,558.465)">
            <path d="M0,-67.667L-18.818,-19.773L-37.972,-67.667L-54.507,-67.667L-54.507,0L-42.011,0L-42.011,-45.677L-23.282,0L-14.48,0L4.053,-45.517L4.053,0L16.549,0L16.549,-67.667L0,-67.667Z" style="fill:rgb(161,238,8);fill-rule:nonzero;"/>
        </g>
        <g transform="matrix(1,0,0,1,194.179,517.823)">
            <path d="M0,13.615L8.539,-13.443L16.674,13.615L0,13.615ZM16.551,-27.026L0.893,-27.026L-23.241,40.641L-8.047,40.641L-2.572,24.167L19.393,24.167L24.697,40.641L40.313,40.641L16.551,-27.026Z" style="fill:rgb(161,238,8);fill-rule:nonzero;"/>
        </g>
        <g transform="matrix(1,0,0,1,309.603,558.465)">
            <path d="M0,-67.667L0,-55.349L20.042,-55.349L20.042,0L33.652,0L33.652,-55.349L53.609,-55.349L53.609,-67.667L0,-67.667Z" style="fill:rgb(161,238,8);fill-rule:nonzero;"/>
        </g>
        <g transform="matrix(1,0,0,1,391.62,503.115)">
            <path d="M0,43.745L0,26.774L29.108,26.774L29.108,15.526L0,15.526L0,0.001L30.384,0.001L30.384,-11.961L-13.609,-11.961L-13.609,55.706L30.844,55.706L30.844,43.745L0,43.745Z" style="fill:rgb(161,238,8);fill-rule:nonzero;"/>
        </g>
        <g transform="matrix(1,0,0,1,476.733,536.552)">
            <path d="M0,-23.127C0,-14.213 -8.218,-13.171 -8.218,-13.171L-23.776,-13.171L-23.776,-33.792L-8.218,-33.792C-8.218,-33.792 0,-32.991 0,-23.127M2.733,-5.299C14.618,-10.053 14.32,-19.849 14.32,-26.327C14.32,-43.569 -5.975,-45.04 -5.975,-45.04L-37.386,-45.04L-37.386,21.913L-23.776,21.913L-23.776,-2.636L-11.767,-2.636L0.118,21.913L16.758,21.913L2.733,-5.299Z" style="fill:rgb(161,238,8);fill-rule:nonzero;"/>
        </g>
        <g transform="matrix(1,0,0,1,509.106,498.904)">
            <path d="M0,51.454C6.195,58.228 12.753,61.048 23.138,61.048C31.104,61.048 37.729,59.199 42.297,55.701L42.339,55.668C47.196,51.801 50.215,45.507 50.215,39.242C50.215,30.256 44.646,23.583 34.926,20.933L19.384,16.77C11.867,14.721 11.286,12.813 11.286,10.343C11.286,5.725 15.604,2.741 22.288,2.741C30.593,2.741 34.839,5.8 34.905,10.673L34.935,11.398L48.09,11.398L48.069,10.747C48.046,7.493 47.772,6.259 46.197,2.912C43.48,-2.793 37.172,-9.594 22.543,-9.594C7.437,-9.594 -2.323,-1.334 -2.323,11.448C-2.323,22.597 5.446,26.96 11.952,28.654L27.355,32.739C35.506,34.843 36.604,37.594 36.604,40.007C36.604,42.347 35.281,44.92 33.364,46.281C32.046,47.235 29.29,48.374 23.647,48.374C17.685,48.374 13.961,47.111 11.549,44.202C9.137,41.292 9.056,40.087 9.056,40.087L-4.235,40.087C-4.235,40.087 -5.274,45.686 0,51.454" style="fill:rgb(161,238,8);fill-rule:nonzero;"/>
        </g>
        <g transform="matrix(1,0,0,1,247.568,498.904)">
            <path d="M0,51.454C6.195,58.228 12.753,61.048 23.138,61.048C31.104,61.048 37.729,59.199 42.296,55.701L42.338,55.668C47.197,51.801 50.214,45.507 50.214,39.242C50.214,30.256 44.646,23.583 34.925,20.933L19.384,16.77C11.867,14.721 11.286,12.813 11.286,10.343C11.286,5.725 15.604,2.741 22.288,2.741C30.593,2.741 34.839,5.8 34.905,10.673L34.935,11.398L48.089,11.398L48.07,10.747C48.046,7.493 47.772,6.259 46.198,2.912C43.481,-2.793 37.171,-9.594 22.543,-9.594C7.437,-9.594 -2.323,-1.334 -2.323,11.448C-2.323,22.597 5.447,26.96 11.952,28.654L27.355,32.739C35.506,34.843 36.605,37.594 36.605,40.007C36.605,42.347 35.281,44.92 33.364,46.281C32.046,47.235 29.29,48.374 23.648,48.374C17.685,48.374 13.961,47.111 11.549,44.202C9.137,41.292 9.055,40.087 9.055,40.087L-4.236,40.087C-4.236,40.087 -5.274,45.686 0,51.454" style="fill:rgb(161,238,8);fill-rule:nonzero;"/>
        </g>
        <g transform="matrix(1,0,0,1,38.04,502.317)">
            <path d="M0,44.575C-11.588,44.575 -18.007,35.686 -18.007,21.929C-18.007,8.172 -11.723,-0.717 0.085,-0.717C11.893,-0.717 18.177,10.235 18.177,21.844C18.177,32.213 14.589,36.92 13.821,37.807L10.914,33.69L-2.845,33.69L4.521,44.121C3.129,44.441 1.699,44.575 0,44.575M21.996,49.26C29.721,42.485 32.856,31.19 32.856,21.759C32.856,11.563 29.735,2.806 23.83,-3.565C17.871,-9.994 9.66,-12.679 0.085,-12.679C-9.533,-12.679 -17.756,-9.985 -23.697,-3.537C-29.578,2.844 -32.686,11.65 -32.686,21.929C-32.686,32.175 -29.579,40.97 -23.699,47.361C-17.749,53.83 -9.524,56.893 0.085,56.893C4.585,56.893 8.521,56.438 12.288,55.12L13.795,57.254L27.553,57.254L21.937,49.301L21.996,49.26Z" style="fill:rgb(161,238,8);fill-rule:nonzero;"/>
        </g>
    </g>
</svg>
