<svg width="206" height="49" viewBox="0 0 206 49" fill="none" xmlns="http://www.w3.org/2000/svg">
<path d="M135.117 34.3445C136.259 34.1231 137.317 33.5841 138.172 32.7885C138.727 32.148 139.14 31.3949 139.382 30.5802C139.624 29.7654 139.69 28.9079 139.575 28.0651V19.2451C139.69 18.4023 139.624 17.5444 139.382 16.7295C139.14 15.9147 138.727 15.1615 138.172 14.5212C137.318 13.7252 136.26 13.1863 135.117 12.965V8.73926C136.963 8.95592 138.693 9.7544 140.063 11.0208C141.011 11.8258 141.783 12.8202 142.33 13.9412C142.877 15.0622 143.188 16.2856 143.243 17.5339V29.5959C143.188 30.8442 142.877 32.0674 142.33 33.1885C141.783 34.3097 141.011 35.304 140.063 36.1089C138.693 37.3753 136.963 38.1738 135.117 38.3906V34.3445Z" fill="url(#paint0_linear_370_15)"/>
<path d="M119.818 11.013C121.188 9.74665 122.92 8.9482 124.766 8.73145V12.9572C123.623 13.1784 122.564 13.7174 121.709 14.5133C121.154 15.1502 120.742 15.9 120.5 16.7116C120.258 17.5233 120.192 18.3775 120.306 19.2172V28.0745C120.192 28.9171 120.258 29.7748 120.5 30.5896C120.742 31.4044 121.154 32.1576 121.709 32.7983C122.564 33.5943 123.623 34.1325 124.766 34.3526V38.3922C122.92 38.1754 121.188 37.3771 119.818 36.1107C118.871 35.3052 118.1 34.3109 117.553 33.1897C117.006 32.0688 116.696 30.8456 116.641 29.5976V17.4945C116.697 16.2513 117.009 15.0337 117.556 13.9181C118.103 12.8025 118.873 11.8133 119.818 11.013Z" fill="url(#paint1_linear_370_15)"/>
<path d="M9.33516 38.3472C8.07246 38.3984 6.81363 38.172 5.64623 37.6841C4.47883 37.1961 3.43074 36.4582 2.57409 35.5211C0.798112 33.4494 -0.119308 30.7675 0.0124591 28.0319V19.1669C-0.116362 16.4235 0.80026 13.7344 2.57409 11.6504C3.42712 10.7073 4.47409 9.96352 5.64195 9.47127C6.80982 8.979 8.07038 8.74993 9.33516 8.80038C10.9903 8.76404 12.6255 9.16994 14.075 9.97658C15.3796 10.704 16.4131 11.8406 17.0191 13.2142H17.1747V0H19.7364V37.828H17.1747V33.9415H17.0191C16.413 35.3151 15.3795 36.4517 14.075 37.1792C12.6247 37.983 10.9896 38.3858 9.33516 38.3472ZM9.84806 36.1169C10.8502 36.1759 11.8529 36.0136 12.7864 35.6412C13.7199 35.2688 14.5616 34.6955 15.2526 33.9611C16.6129 32.2984 17.2995 30.1781 17.1747 28.0262V19.1669C17.3048 16.9981 16.6184 14.8597 15.2526 13.1793C13.7962 11.7983 11.8723 11.0293 9.87321 11.0293C7.87414 11.0293 5.95066 11.7983 4.49422 13.1793C3.1292 14.86 2.44341 16.9983 2.57409 19.1669V28.028C2.4485 30.1799 3.13447 32.3002 4.49422 33.9631C5.17715 34.694 6.01003 35.2653 6.93485 35.6375C7.8597 36.0095 8.8539 36.173 9.84806 36.1169Z" fill="white"/>
<path d="M37.3606 38.3468C36.0018 38.4252 34.6422 38.2141 33.3698 37.7273C32.0975 37.2402 30.9406 36.4885 29.9755 35.5207C28.1337 33.4615 27.176 30.7506 27.3115 27.9808V19.1665C27.2442 17.7926 27.4471 16.4189 27.9087 15.1245C28.3704 13.8301 29.0817 12.6407 30.0011 11.6246C30.9637 10.663 32.1146 9.91464 33.3807 9.42825C34.6468 8.94186 36 8.7278 37.353 8.79995C38.6984 8.72461 40.0442 8.93764 41.3024 9.42443C42.5605 9.91121 43.7019 10.661 44.652 11.6246C46.4786 13.6921 47.4262 16.4009 47.2896 19.1665V24.09H29.8725V27.977C29.7555 30.1232 30.4499 32.2342 31.8159 33.8843C32.526 34.6307 33.3889 35.2122 34.3444 35.5883C35.2998 35.9642 36.3253 36.1261 37.3491 36.062C39.0375 36.1299 40.7017 35.6381 42.0871 34.6622C43.3476 33.7087 44.2573 32.3592 44.6734 30.8265H47.235C46.8061 33.0029 45.6146 34.9511 43.8787 36.3147C41.9962 37.7157 39.6987 38.4319 37.3606 38.3468ZM29.8806 21.8654H44.7379V19.1665C44.8539 17.0234 44.1681 14.9147 42.8159 13.2573C42.1203 12.5134 41.2709 11.9325 40.3283 11.5562C39.3856 11.1799 38.3725 11.0173 37.3606 11.0796C36.3387 11.0158 35.3155 11.1755 34.3606 11.5476C33.4056 11.9197 32.5415 12.4956 31.8277 13.2358C30.4536 14.8919 29.7584 17.0145 29.8843 19.1704L29.8806 21.8654Z" fill="white"/>
<path d="M65.4989 38.2946C63.5565 38.3325 61.6253 37.9895 59.8125 37.285C58.2984 36.7049 56.9763 35.708 55.9959 34.4078C55.0788 33.1275 54.6013 31.5809 54.6355 30.0021H61.0891C61.0703 30.4593 61.1721 30.9135 61.384 31.3184C61.5956 31.7233 61.9096 32.0644 62.2944 32.307C63.2764 32.8911 64.4069 33.1704 65.5453 33.1104H67.7492C69.0063 33.2043 70.261 32.8964 71.3347 32.2304C71.7149 31.954 72.0217 31.5871 72.2271 31.1624C72.4327 30.7377 72.5309 30.2684 72.5128 29.7963C72.5128 27.8245 71.0619 26.615 68.1596 26.1681L64.2145 25.6485C58.3066 24.7848 55.3524 21.9347 55.3524 17.0974C55.2799 15.9311 55.4865 14.7642 55.9545 13.6952C56.4227 12.6261 57.1386 11.6862 58.0423 10.9547C60.3464 9.40703 63.0924 8.6691 65.8547 8.85544H67.7981C70.5146 8.72385 73.2006 9.48017 75.4569 11.0116C76.3689 11.6426 77.1111 12.4923 77.6162 13.4846C78.1213 14.4769 78.3737 15.5803 78.3506 16.6954H71.8966C71.9053 16.3042 71.8103 15.9178 71.6208 15.5762C71.4315 15.2346 71.155 14.9505 70.8199 14.7531C69.8822 14.2309 68.8165 13.9884 67.7474 14.0536H65.804C63.0042 14.0536 61.6045 15.0724 61.6045 17.1108C61.6045 18.8722 62.8504 19.9434 65.3432 20.3236L69.3392 20.9447C71.9267 21.1505 74.3956 22.125 76.4342 23.7454C77.2252 24.5002 77.8435 25.4198 78.2462 26.44C78.6489 27.4602 78.8267 28.5568 78.7667 29.6532C78.8279 30.8615 78.6071 32.0677 78.1224 33.1745C77.6377 34.2815 76.9026 35.2584 75.9759 36.0269C73.5733 37.7111 70.6722 38.5161 67.7534 38.3086L65.4989 38.2946Z" fill="white"/>
<path d="M97.4631 38.3474C95.2931 38.397 93.1426 37.9268 91.1879 36.9754C89.4528 36.113 88.0025 34.7626 87.0115 33.0872C85.9887 31.2834 85.4755 29.2313 85.527 27.1541V20.0003C85.476 17.9224 85.9893 15.8699 87.0115 14.0652C88.0032 12.3912 89.4534 11.0423 91.1879 10.1806C93.1426 9.22923 95.2931 8.75912 97.4631 8.80865C100.539 8.64948 103.565 9.63544 105.967 11.5797C107.026 12.5223 107.872 13.684 108.446 14.9853C109.021 16.2867 109.311 17.6977 109.297 19.1221H103.046C103.031 18.4608 102.874 17.8103 102.587 17.2157C102.299 16.6211 101.888 16.0961 101.381 15.6763C100.254 14.8251 98.8695 14.3941 97.4631 14.4571C95.9809 14.3761 94.5268 14.8883 93.4168 15.8821C92.901 16.418 92.5024 17.057 92.2463 17.7579C91.9903 18.4587 91.8826 19.2056 91.9305 19.9509V27.1558C91.8844 27.9046 91.9928 28.655 92.2488 29.3595C92.5045 30.0639 92.9022 30.7072 93.4168 31.2487C93.9623 31.7491 94.6011 32.1348 95.2956 32.3841C95.9904 32.6334 96.727 32.7412 97.4631 32.7009C98.8787 32.7722 100.274 32.3414 101.408 31.4835C101.909 31.0594 102.314 30.5325 102.596 29.9381C102.879 29.3436 103.032 28.695 103.046 28.0359H109.297C109.311 29.4604 109.021 30.8716 108.447 32.173C107.872 33.4747 107.027 34.636 105.967 35.5783C103.566 37.5227 100.539 38.5082 97.4631 38.3474Z" fill="white"/>
<path d="M150.731 47.1576V9.32942H156.981V14.461H157.082C157.506 12.7991 158.472 11.329 159.825 10.2879C161.251 9.26903 162.969 8.75067 164.716 8.81214C165.979 8.76627 167.236 9.00802 168.393 9.51938C169.55 10.0307 170.579 10.7987 171.401 11.766C173.18 14.0072 174.079 16.8295 173.927 19.696V27.4182C174.084 30.301 173.185 33.1414 171.401 35.3995C170.579 36.367 169.55 37.1353 168.393 37.647C167.236 38.1588 165.979 38.4007 164.716 38.3552C162.98 38.4079 161.274 37.8881 159.857 36.8752C158.492 35.8419 157.517 34.3711 157.09 32.7045H156.989L157.143 39.1725V47.1556L150.731 47.1576ZM162.361 32.7474C163.062 32.7904 163.764 32.6837 164.421 32.434C165.079 32.1845 165.676 31.7974 166.175 31.299C167.146 30.1473 167.634 28.6599 167.536 27.1516V19.9978C167.635 18.4903 167.146 17.0033 166.175 15.8525C165.116 14.9088 163.75 14.3924 162.337 14.4022C160.924 14.4119 159.564 14.9469 158.518 15.9052C157.532 17.0892 157.037 18.6112 157.135 20.1544V26.9948C157.036 28.5381 157.532 30.0605 158.518 31.2445C159.015 31.7576 159.615 32.1571 160.278 32.4164C160.94 32.6757 161.651 32.7886 162.361 32.7474Z" fill="white"/>
<path d="M192.942 38.3474C190.777 38.3987 188.632 37.9179 186.692 36.9464C184.973 36.0663 183.541 34.7053 182.568 33.0264C181.565 31.2347 181.061 29.2032 181.109 27.1464V19.992C181.06 17.9352 181.565 15.9035 182.568 14.112C183.54 12.4327 184.972 11.0718 186.692 10.192C188.632 9.22102 190.777 8.74098 192.942 8.79286C195.083 8.74284 197.201 9.22312 199.114 10.192C200.824 11.0778 202.244 12.4379 203.212 14.112C204.217 15.9035 204.72 17.9352 204.672 19.992V25.1236H187.306V27.1464C187.306 31.1879 189.202 33.2092 192.992 33.2106C195.928 33.2106 197.654 32.2253 198.167 30.2547H204.468C204.246 31.446 203.789 32.5801 203.125 33.5901C202.462 34.6 201.603 35.4654 200.6 36.1347C198.336 37.6553 195.66 38.4283 192.942 38.3474ZM187.306 19.9982V21.0878L198.474 21.037V19.9471C198.583 18.315 198.091 16.7 197.091 15.4117C196.556 14.8588 195.907 14.4309 195.19 14.158C194.473 13.8851 193.706 13.7739 192.942 13.8321C192.164 13.7727 191.383 13.8855 190.652 14.1628C189.922 14.4401 189.261 14.8748 188.715 15.437C187.703 16.7295 187.201 18.3546 187.306 19.9982Z" fill="white"/>
<path d="M133.588 20.3743L134.948 18.1713L132.104 16.6582L130.907 18.9474C130.824 19.1084 130.698 19.2433 130.544 19.3374C130.39 19.4315 130.213 19.4814 130.033 19.4814C129.853 19.4814 129.676 19.4315 129.522 19.3374C129.368 19.2433 129.242 19.1084 129.158 18.9474L127.96 16.6582L125.146 18.1579L127.102 21.3214L133.588 20.3743Z" fill="url(#paint2_linear_370_15)"/>
<path d="M137.122 21.9658L123.13 22.0873V24.9374L127.514 24.9237L125.149 28.7455L127.963 30.2453L129.162 27.9554C129.245 27.7939 129.371 27.6586 129.525 27.564C129.679 27.4695 129.856 27.4195 130.037 27.4195C130.217 27.4195 130.394 27.4695 130.549 27.564C130.703 27.6586 130.828 27.7939 130.911 27.9554L132.109 30.2453L134.952 28.7315L133.033 25.6332L129.359 24.916L137.132 24.8901L137.122 21.9658Z" fill="url(#paint3_linear_370_15)"/>
<defs>
<linearGradient id="paint0_linear_370_15" x1="125.326" y1="41.9783" x2="147.042" y2="39.4242" gradientUnits="userSpaceOnUse">
<stop stop-color="#0081B3"/>
<stop offset="0.417" stop-color="#00FFFF"/>
<stop offset="0.995" stop-color="#6FEF2D"/>
</linearGradient>
<linearGradient id="paint1_linear_370_15" x1="115.227" y1="35.4261" x2="136.942" y2="32.8731" gradientUnits="userSpaceOnUse">
<stop stop-color="#0081B3"/>
<stop offset="0.417" stop-color="#00FFFF"/>
<stop offset="0.995" stop-color="#6FEF2D"/>
</linearGradient>
<linearGradient id="paint2_linear_370_15" x1="117.931" y1="37.176" x2="122.433" y2="6.01828" gradientUnits="userSpaceOnUse">
<stop stop-color="#0081B3"/>
<stop offset="0.417" stop-color="#00FFFF"/>
<stop offset="0.995" stop-color="#6FEF2D"/>
</linearGradient>
<linearGradient id="paint3_linear_370_15" x1="120.469" y1="38.8224" x2="127.551" y2="7.12862" gradientUnits="userSpaceOnUse">
<stop stop-color="#0081B3"/>
<stop offset="0.417" stop-color="#00FFFF"/>
<stop offset="0.995" stop-color="#6FEF2D"/>
</linearGradient>
</defs>
</svg>
