<svg xmlns="http://www.w3.org/2000/svg" width="128" height="33" fill="#162050" xmlns:v="https://vecta.io/nano"><path fill-rule="evenodd" d="M26.361 20.569c-.572-.576-.858-1.285-.858-2.127s.286-1.551.858-2.127 1.281-.865 2.128-.864c.862 0 1.579.288 2.15.864.356.351.613.788.746 1.269.149.563.149 1.154 0 1.716-.133.48-.391.918-.746 1.269-.572.576-1.289.864-2.15.864-.847 0-1.557-.288-2.128-.864zm90.65-4.786c.572.576.858 1.285.858 2.127s-.286 1.551-.858 2.127-1.281.864-2.128.864c-.862 0-1.579-.288-2.15-.864a2.86 2.86 0 0 1-.747-1.269c-.148-.563-.148-1.154 0-1.716a2.86 2.86 0 0 1 .747-1.269c.572-.576 1.288-.864 2.15-.864.847 0 1.556.288 2.128.864zm-5.025 7.484c.837.387 1.78.581 2.83.58 1.783 0 3.276-.576 4.479-1.728s1.805-2.57 1.805-4.254-.583-3.087-1.749-4.21-2.64-1.684-4.423-1.684c-1.089 0-2.069.217-2.942.65v-.429h-3.231v15.508h3.231v-4.435zm-15.999-9.035c-1.203 1.152-1.805 2.57-1.805 4.254s.583 3.087 1.749 4.21 2.641 1.683 4.423 1.683 3.276-.58 4.479-1.739 1.805-2.582 1.805-4.265-.583-3.082-1.75-4.196-2.641-1.673-4.423-1.673-3.276.576-4.479 1.728l.001-.002zm4.413 1.219c.861 0 1.578.288 2.15.864s.857 1.285.858 2.127a2.9 2.9 0 0 1-.858 2.127c-.572.576-1.289.864-2.15.864-.847 0-1.556-.288-2.128-.864a2.9 2.9 0 0 1-.858-2.127c0-.842.286-1.551.858-2.127s1.281-.864 2.128-.864zm-14.016 0c.861 0 1.578.288 2.15.864s.858 1.285.858 2.127a2.9 2.9 0 0 1-.858 2.127c-.572.576-1.289.864-2.15.864-.847 0-1.557-.288-2.128-.864s-.857-1.285-.858-2.127.286-1.551.858-2.127 1.281-.864 2.128-.864zm-4.412-1.219c-1.203 1.152-1.805 2.57-1.805 4.254s.583 3.087 1.749 4.21 2.641 1.683 4.423 1.683 3.276-.58 4.479-1.739 1.805-2.582 1.805-4.265-.584-3.082-1.75-4.196-2.641-1.673-4.423-1.673-3.276.576-4.479 1.728l.001-.002zm-7.31-5.583V24.38h3.275V8.649h-3.275zm-22.105 5.583c-1.203 1.152-1.805 2.57-1.805 4.254s.583 3.087 1.749 4.21 2.641 1.683 4.423 1.683 3.276-.58 4.479-1.739 1.805-2.582 1.805-4.265-.583-3.082-1.749-4.196-2.641-1.673-4.423-1.673-3.276.576-4.479 1.728v-.002zm2.284 2.083c.572-.577 1.281-.865 2.128-.864.862 0 1.578.288 2.15.864a2.9 2.9 0 0 1 .858 2.127 2.9 2.9 0 0 1-.858 2.127c-.572.576-1.289.864-2.15.864-.847 0-1.556-.288-2.128-.864a2.9 2.9 0 0 1-.858-2.127c0-.842.286-1.551.858-2.127zm-5.649 2.06c0-1.683-.583-3.083-1.749-4.198s-2.64-1.673-4.423-1.673-3.275.576-4.479 1.728-1.805 2.57-1.804 4.254.583 3.087 1.749 4.21 2.641 1.684 4.423 1.683 3.276-.58 4.479-1.739a5.69 5.69 0 0 0 1.805-4.265h-.001zm-6.239-2.924c.862 0 1.579.288 2.151.864s.857 1.285.858 2.127a2.9 2.9 0 0 1-.858 2.127c-.572.576-1.289.864-2.151.864-.847 0-1.556-.288-2.128-.864s-.858-1.285-.858-2.127.286-1.551.858-2.127 1.281-.864 2.128-.864zm22.373-2.725V24.38h3.231v-4.941c0-2.437 1.129-3.656 3.387-3.656h.67l.044-3.279c-1.906 0-3.272.702-4.1 2.107v-1.885h-3.231zm-33.938.359c-.836-.387-1.779-.58-2.83-.581-1.782 0-3.275.576-4.479 1.728s-1.805 2.57-1.805 4.254.583 3.087 1.749 4.21 2.641 1.684 4.423 1.683c1.088 0 2.069-.217 2.941-.65l-.002.65h3.233V8.649h-3.231v4.436z"/><path d="M125.44 12.295c.472 0 .892.106 1.261.318.378.212.668.506.873.882.212.368.318.788.318 1.258a2.54 2.54 0 0 1-.318 1.27c-.205.368-.495.659-.873.87-.369.212-.789.317-1.261.317s-.895-.106-1.273-.317a2.32 2.32 0 0 1-.872-.87 2.54 2.54 0 0 1-.318-1.27c0-.47.106-.89.318-1.258.212-.376.503-.67.872-.882.378-.212.802-.318 1.273-.318zm0 4.374c.566 0 1.018-.176 1.356-.529.345-.353.518-.815.518-1.387s-.173-1.035-.518-1.388c-.338-.353-.79-.529-1.356-.529-.573 0-1.029.176-1.367.529s-.507.815-.507 1.388.169 1.035.507 1.387.794.529 1.367.529zm1.085-2.387c0 .173-.044.325-.13.459-.086.125-.204.22-.354.282l.625.964h-.896l-.518-.882h-.083v.882h-.742v-2.528h1.19c.275 0 .495.078.66.235.165.149.248.345.248.588zm-1.356.223h.401c.063 0 .114-.016.153-.047a.19.19 0 0 0 .071-.153c0-.063-.024-.11-.071-.141-.039-.031-.09-.047-.153-.047h-.401v.388z"/><path d="M9.493 28.266l-4.215.635c-.809.123-1.482-.48-1.482-1.34V22.48v-5.928-.089c0-1.035-.826-1.899-1.853-1.923C.886 14.516 0 15.382 0 16.463v13.569c0 .991.407 1.818 1.055 2.347.634.523 1.498.737 2.431.56l3.091-.607 2.913-.576 2.668-.525 2.528-.498c.686-.137 1.295-.577 1.729-1.192a3.78 3.78 0 0 0 .689-2.171v-9.005a1.96 1.96 0 0 1-2.652-.003v2.947l.006 4.833c0 .756-.52 1.448-1.166 1.545l-3.8.579zm4.962-16.968v5.158.087c.038.86.638 1.538 1.351 1.522.697-.016 1.261-.693 1.298-1.523V5.641a3.8 3.8 0 0 0-.693-2.177c-.436-.612-1.046-1.071-1.736-1.203l-2.525-.496-2.659-.524L6.584.67 3.5.063c-.932-.186-1.8.048-2.436.572-.648.529-1.06 1.363-1.06 2.354v10.174 1.347a2.71 2.71 0 0 1 1.902-.786l.007.004h.052a2.69 2.69 0 0 1 1.837.78v-1.344-2.16V5.45c0-.859.674-1.457 1.482-1.335l4.208.638 3.793.573c.646.096 1.167.791 1.167 1.537l.003 4.434zm-6.184 4.355c.34.135.578.488.578.899 0 .523-.386.95-.876.953H7.91c-.46-.03-.828-.442-.828-.953 0-.534.404-.963.893-.958a.82.82 0 0 1 .296.059zm4.542 4.98v-4.131-4.115l-.003-4.135c0-.613-.436-1.17-.972-1.239L9.494 6.72l-2.497-.314c-.617-.08-1.133.408-1.133 1.08V12v4.505 9.015c0 .672.513 1.159 1.13 1.084l2.501-.313 2.347-.296c.54-.068.975-.63.975-1.246l-.004-4.116z" fill-rule="evenodd"/></svg>